<?xml version="1.0" standalone="no"?>
<!DOCTYPE svg PUBLIC "-//W3C//DTD SVG 20010904//EN"
 "http://www.w3.org/TR/2001/REC-SVG-20010904/DTD/svg10.dtd">
<svg version="1.0" xmlns="http://www.w3.org/2000/svg"
 width="300.000000pt" height="209.000000pt" viewBox="0 0 300.000000 209.000000"
 preserveAspectRatio="xMidYMid meet">
<metadata>
Created by potrace 1.10, written by Peter Selinger 2001-2011
</metadata>
<g transform="translate(0.000000,209.000000) scale(0.100000,-0.100000)"
fill="#000000" stroke="none">
<path d="M1364 1781 c-95 -53 -181 -105 -193 -115 -20 -18 -21 -28 -21 -232 0
-117 3 -219 6 -228 3 -9 65 -48 138 -88 205 -114 268 -161 164 -124 l-38 14
-78 -82 c-43 -44 -123 -128 -177 -186 -55 -58 -103 -106 -106 -108 -4 -2 -35
28 -70 65 -170 181 -224 233 -240 233 -10 0 -71 -58 -136 -128 l-118 -128 -3
345 c-2 314 -1 346 15 363 16 18 33 19 315 16 l298 -3 0 38 0 37 -307 0 c-290
0 -310 -1 -341 -20 -18 -11 -37 -32 -42 -46 -13 -34 -13 -1034 0 -1068 5 -14
24 -35 42 -46 32 -19 51 -20 764 -20 l731 0 28 22 c47 37 57 76 54 220 l-2
130 190 -2 c186 -1 192 0 216 22 26 23 227 376 227 398 0 21 -201 375 -226
398 -24 21 -32 22 -223 22 -243 0 -255 -3 -288 -78 -13 -31 -58 -115 -99 -189
-41 -73 -74 -140 -74 -150 0 -22 89 -200 149 -301 24 -40 41 -75 38 -79 -21
-20 -146 77 -161 125 -4 12 -11 22 -16 22 -5 0 -12 20 -16 45 -3 25 -10 45
-15 45 -5 0 -9 6 -9 13 0 6 -5 29 -11 50 -9 33 -13 36 -34 31 -32 -8 -32 9 -1
24 19 8 42 59 32 69 -1 2 -32 -13 -69 -33 l-67 -35 0 190 c0 179 1 191 19 191
10 0 38 15 62 33 36 27 228 141 263 156 5 2 7 -24 3 -63 -7 -69 -1 -78 26 -48
21 23 24 140 5 164 -23 28 -378 218 -406 217 -15 -1 -104 -45 -198 -98z m379
-41 l167 -92 -171 -95 -171 -95 -57 29 c-31 16 -111 57 -179 92 l-122 64 137
74 c76 42 156 86 177 99 22 12 42 21 45 20 3 -2 81 -45 174 -96z m-420 -208
c69 -38 133 -77 142 -86 10 -9 30 -20 46 -23 l29 -5 0 -189 0 -189 -37 18
c-21 9 -98 51 -171 92 l-135 75 -1 188 c-1 103 -1 187 0 187 1 0 58 -31 127
-68z m1065 -110 c-1 -5 -43 -83 -92 -174 l-88 -166 -193 0 -192 0 60 107 c33
58 75 129 94 158 18 28 36 59 39 67 5 14 32 16 191 16 102 0 183 -4 181 -8z
m62 -23 c0 -6 41 -85 91 -176 l90 -164 -93 -169 c-84 -154 -108 -189 -108
-160 0 5 -41 82 -91 170 l-90 159 84 158 c46 87 86 166 90 176 7 19 27 23 27
6z m-148 -527 c51 -92 94 -171 96 -177 2 -6 -62 -9 -182 -7 l-185 3 -44 67
c-24 37 -64 103 -89 147 -24 44 -52 92 -61 106 l-18 27 195 0 195 0 93 -166z
m-717 147 c4 -5 19 -8 34 -4 39 8 66 -25 95 -118 32 -101 56 -138 128 -198 63
-53 98 -61 130 -32 32 29 41 4 39 -117 -2 -135 -5 -145 -34 -125 -19 13 -121
15 -745 15 -648 0 -725 -2 -747 -16 l-25 -16 0 131 c0 119 7 151 25 121 3 -5
11 -10 17 -10 6 0 65 53 131 118 l119 117 132 -136 c72 -75 140 -141 151 -147
28 -15 59 4 125 75 30 32 102 108 161 170 l107 111 41 -5 c47 -6 71 8 71 42 0
12 3 25 7 28 10 10 31 8 38 -4z m385 -639 c0 -10 -9 -24 -19 -30 -13 -7 -258
-10 -725 -10 -627 0 -706 2 -720 16 -46 45 -62 44 724 44 729 0 740 0 740 -20z"/>
<path d="M1528 1679 c-25 -14 -22 -38 6 -50 29 -14 75 -4 83 16 13 36 -47 59
-89 34z"/>
<path d="M1248 1473 c-29 -7 -34 -51 -10 -76 18 -18 25 -19 47 -9 32 15 35 66
6 82 -11 5 -21 9 -23 9 -2 -1 -11 -3 -20 -6z"/>
<path d="M1328 1335 c-8 -19 -8 -31 0 -50 19 -42 62 -25 62 25 0 50 -43 67
-62 25z"/>
<path d="M1420 1219 c-23 -42 13 -95 46 -68 17 14 18 61 2 77 -18 18 -36 15
-48 -9z"/>
<path d="M2181 1376 c-16 -19 -3 -45 25 -52 45 -12 79 21 54 51 -16 19 -64 19
-79 1z"/>
<path d="M2060 1285 c-11 -14 -10 -19 8 -38 29 -29 77 -14 77 23 0 21 -5 25
-36 28 -24 2 -40 -2 -49 -13z"/>
<path d="M1949 1199 c-20 -20 -20 -22 -3 -40 19 -21 45 -24 75 -9 38 21 13 70
-35 70 -9 0 -25 -9 -37 -21z"/>
<path d="M2418 1085 c-8 -19 -8 -31 0 -51 25 -54 82 -4 61 54 -11 30 -46 29
-61 -3z"/>
<path d="M1951 976 l-23 -25 28 -26 c15 -14 30 -22 33 -17 3 5 16 12 29 16 24
8 30 38 10 54 -30 23 -54 22 -77 -2z"/>
<path d="M2186 795 c-19 -20 -20 -27 -4 -43 17 -17 63 -15 79 4 30 36 -41 73
-75 39z"/>
<path d="M1820 1460 c-21 -21 -18 -46 8 -67 24 -19 40 -16 58 12 15 23 15 27
0 50 -20 30 -39 32 -66 5z"/>
<path d="M1652 1228 c-26 -26 -8 -88 25 -88 23 0 38 46 25 75 -13 27 -31 32
-50 13z"/>
<path d="M979 1101 c-34 -33 -39 -45 -39 -82 0 -56 16 -87 59 -116 44 -30 98
-30 142 0 43 29 59 60 59 116 0 37 -5 49 -39 82 -35 35 -44 39 -91 39 -47 0
-56 -4 -91 -39z m153 -31 c26 -27 30 -36 25 -67 -9 -52 -38 -78 -88 -78 -81 0
-117 88 -60 146 40 40 82 39 123 -1z"/>
</g>
</svg>
