<?xml version="1.0" standalone="no"?>
<!DOCTYPE svg PUBLIC "-//W3C//DTD SVG 20010904//EN"
 "http://www.w3.org/TR/2001/REC-SVG-20010904/DTD/svg10.dtd">
<svg version="1.0" xmlns="http://www.w3.org/2000/svg"
 width="178.000000pt" height="152.000000pt" viewBox="0 0 178.000000 152.000000"
 preserveAspectRatio="xMidYMid meet">
<metadata>
Created by potrace 1.10, written by Peter Selinger 2001-2011
</metadata>
<g transform="translate(0.000000,152.000000) scale(0.100000,-0.100000)"
fill="#000000" stroke="none">
<path d="M267 1354 c-4 -4 -7 -62 -7 -129 0 -140 4 -148 71 -143 38 3 47 8 74
45 l30 42 118 0 117 1 0 -195 c0 -188 1 -195 20 -195 19 0 20 7 20 199 0 168
-2 202 -16 215 -12 13 -40 16 -140 16 -134 0 -138 -2 -179 -64 -12 -18 -26
-26 -46 -26 l-29 0 0 105 0 104 93 3 c53 2 92 7 92 13 0 11 -207 20 -218 9z"/>
<path d="M540 1345 c0 -13 48 -15 375 -15 l375 0 0 -105 0 -105 -29 0 c-22 0
-35 8 -52 33 -38 55 -44 57 -170 57 -65 0 -124 -3 -133 -6 -14 -5 -16 -40 -16
-285 0 -268 -1 -279 -20 -289 -11 -6 -20 -17 -20 -24 0 -34 32 -18 103 50 42
41 82 74 90 74 7 0 31 -18 52 -40 31 -31 39 -47 37 -69 -4 -34 27 -61 70 -61
35 0 58 24 58 60 0 35 -36 63 -74 58 -19 -2 -37 8 -71 42 l-45 44 27 28 26 27
56 -49 c31 -27 96 -86 145 -132 l89 -84 -114 -106 c-63 -58 -131 -120 -151
-138 l-38 -32 -37 32 c-21 18 -65 58 -98 89 -98 92 -104 96 -117 83 -9 -9 -6
-17 10 -35 19 -20 22 -35 22 -100 l0 -77 -90 0 c-89 0 -90 0 -90 25 0 17 5 25
18 25 12 0 31 27 61 85 24 47 48 88 52 91 12 7 12 71 0 78 -4 3 -28 44 -52 91
l-44 85 -107 0 -107 0 -46 -87 c-25 -49 -48 -100 -51 -114 -4 -18 8 -54 45
-127 l51 -102 83 0 c48 0 77 -4 69 -9 -8 -5 -12 -21 -10 -37 l3 -29 114 -3
c142 -3 146 -1 137 90 l-6 67 71 -67 c98 -92 113 -101 143 -82 13 8 87 74 164
146 123 114 145 130 169 127 36 -6 83 29 83 62 0 16 -34 55 -124 139 -68 64
-128 116 -134 116 -40 0 -17 -27 173 -203 42 -38 48 -49 39 -63 -6 -10 -15
-19 -20 -21 -5 -2 -55 38 -110 89 -55 51 -135 126 -179 166 -76 69 -79 74 -61
87 26 20 29 19 66 -11 24 -21 34 -24 43 -15 9 10 4 20 -25 47 -21 19 -46 34
-56 34 -30 0 -75 -55 -70 -84 4 -18 -3 -32 -23 -52 l-29 -28 -28 27 c-15 15
-33 27 -40 27 -21 0 -13 -30 14 -53 l25 -22 -43 -42 -43 -42 0 244 0 245 113
0 112 0 32 -45 c30 -42 35 -45 78 -45 25 0 51 5 58 12 13 13 18 222 6 252 -5
14 -50 16 -395 16 -339 0 -389 -2 -389 -15z m147 -680 c-56 -118 -45 -110
-141 -113 -47 -1 -86 0 -86 3 0 8 70 147 81 161 4 5 44 10 91 10 l83 -1 -28
-60z m97 -41 c20 -39 36 -78 36 -88 0 -18 -71 -165 -80 -166 -10 0 -85 165
-82 180 2 8 9 22 16 30 7 8 23 41 36 73 12 32 26 55 30 50 4 -4 24 -40 44 -79z
m436 -3 c0 -22 -21 -33 -40 -21 -18 11 -4 40 20 40 13 0 20 -7 20 -19z m-544
-191 c24 -47 44 -85 44 -85 0 0 -40 1 -89 3 l-90 3 -40 79 c-23 43 -41 82 -41
85 0 3 39 4 86 3 l87 -3 43 -85z"/>
<path d="M624 699 c-10 -17 13 -36 27 -22 12 12 4 33 -11 33 -5 0 -12 -5 -16
-11z"/>
<path d="M560 646 c0 -8 5 -18 10 -21 13 -8 42 14 34 26 -9 15 -44 10 -44 -5z"/>
<path d="M505 600 c-8 -12 20 -24 35 -15 5 3 10 10 10 16 0 12 -37 12 -45 -1z"/>
<path d="M731 553 c-11 -21 4 -57 20 -48 12 8 12 52 0 60 -6 3 -14 -3 -20 -12z"/>
<path d="M510 490 c-13 -9 -13 -11 0 -20 19 -12 35 -8 35 10 0 18 -16 22 -35
10z"/>
<path d="M624 399 c-10 -17 13 -36 27 -22 12 12 4 33 -11 33 -5 0 -12 -5 -16
-11z"/>
<path d="M275 931 c-22 -16 -60 -40 -85 -54 l-45 -25 -3 -126 c-2 -114 -1
-127 15 -133 10 -4 50 -28 90 -55 40 -26 77 -48 84 -48 21 0 68 33 72 52 5 19
-8 25 -18 8 -3 -5 -15 -15 -26 -20 -18 -10 -19 -7 -19 88 l0 99 75 47 c42 25
78 46 80 46 3 0 5 -14 5 -32 0 -28 2 -31 15 -18 21 21 9 87 -19 104 -12 7 -51
31 -87 54 -36 23 -72 42 -80 42 -8 -1 -32 -14 -54 -29z m107 -26 c20 -14 40
-25 43 -25 4 0 20 -10 37 -21 l29 -21 -82 -49 -81 -49 -27 19 c-14 10 -50 31
-79 45 -30 15 -51 30 -47 34 17 17 142 90 155 91 9 1 32 -10 52 -24z m-124
-150 l62 -36 0 -100 0 -99 -52 33 c-29 19 -65 41 -80 51 -27 16 -28 19 -28
111 0 88 1 94 18 86 9 -5 45 -26 80 -46z"/>
<path d="M312 843 c4 -20 18 -26 37 -14 18 12 5 31 -20 31 -14 0 -19 -6 -17
-17z"/>
<path d="M180 725 c0 -17 5 -25 13 -22 6 2 12 12 12 22 0 10 -6 20 -12 23 -8
2 -13 -6 -13 -23z"/>
<path d="M218 678 c-7 -19 2 -38 18 -38 8 0 14 10 14 25 0 26 -24 35 -32 13z"/>
<path d="M264 616 c-6 -17 2 -36 17 -36 12 0 12 37 -1 45 -6 3 -13 -1 -16 -9z"/>
<path d="M450 725 c0 -16 6 -25 15 -25 9 0 15 9 15 25 0 16 -6 25 -15 25 -9 0
-15 -9 -15 -25z"/>
<path d="M370 605 c0 -17 5 -25 13 -22 6 2 12 12 12 22 0 10 -6 20 -12 23 -8
2 -13 -6 -13 -23z"/>
<path d="M1458 448 c-57 -76 -64 -129 -22 -169 38 -36 107 -34 140 4 38 45 30
97 -26 161 -40 45 -61 45 -92 4z m87 -64 c21 -46 13 -82 -21 -90 -77 -20 -99
57 -36 128 18 22 33 12 57 -38z"/>
</g>
</svg>
